<svg width="101" height="101" viewBox="0 0 101 101" fill="none" xmlns="http://www.w3.org/2000/svg">
<path d="M0 50.5C0 22.8858 22.8858 0 50.5 0C78.1142 0 101 22.8858 101 50.5C101 78.1142 78.1142 101 50.5 101C22.8858 101 0 78.1142 0 50.5Z" fill="#013232"/>
<path d="M33.408 66.328C30.9733 66.328 28.8173 65.844 26.94 64.876C25.092 63.8787 23.64 62.456 22.584 60.608C21.528 58.76 21 56.5747 21 54.052V35H28.26V54.316C28.26 55.372 28.4653 56.3253 28.876 57.176C29.2867 58.0267 29.8733 58.7013 30.636 59.2C31.428 59.6987 32.352 59.948 33.408 59.948C34.464 59.948 35.3733 59.6987 36.136 59.2C36.8987 58.7013 37.4853 58.0267 37.896 57.176C38.336 56.3253 38.556 55.372 38.556 54.316V35H45.816V54.316C45.816 55.372 46.0213 56.3253 46.432 57.176C46.8427 58.0267 47.4293 58.7013 48.192 59.2C48.984 59.6987 49.908 59.948 50.964 59.948C52.02 59.948 52.9293 59.6987 53.692 59.2C54.484 58.7013 55.0853 58.0267 55.496 57.176C55.9067 56.3253 56.112 55.372 56.112 54.316V35H63.372V54.052C63.372 56.5747 62.844 58.76 61.788 60.608C60.732 62.456 59.2653 63.8787 57.388 64.876C55.54 65.844 53.3987 66.328 50.964 66.328C49.7613 66.328 48.6173 66.1813 47.532 65.888C46.476 65.624 45.4933 65.2133 44.584 64.656C43.704 64.0987 42.8973 63.424 42.164 62.632C41.46 63.424 40.6533 64.0987 39.744 64.656C38.8347 65.184 37.852 65.5947 36.796 65.888C35.74 66.1813 34.6107 66.328 33.408 66.328Z" fill="white"/>
<path d="M74.5571 65.8C72.0344 65.7707 69.7611 65.36 67.7371 64.568C65.7131 63.776 63.9971 62.6907 62.5891 61.312C61.1811 59.9333 60.0957 58.32 59.3331 56.472C58.5704 54.5947 58.1891 52.5707 58.1891 50.4C58.1891 48.2293 58.5704 46.22 59.3331 44.372C60.0957 42.4947 61.1811 40.8667 62.5891 39.488C64.0264 38.1093 65.7424 37.024 67.7371 36.232C69.7611 35.44 72.0344 35.0293 74.5571 35H79.3091V41.16H74.7331C73.3544 41.1893 72.0931 41.4387 70.9491 41.908C69.8344 42.3773 68.8664 43.0227 68.0451 43.844C67.2531 44.6653 66.6371 45.6333 66.1971 46.748C65.7864 47.8627 65.5811 49.08 65.5811 50.4C65.5811 51.72 65.7864 52.9373 66.1971 54.052C66.6371 55.1667 67.2531 56.1347 68.0451 56.956C68.8664 57.7773 69.8344 58.4227 70.9491 58.892C72.0931 59.3613 73.3544 59.6107 74.7331 59.64H79.3091V65.8H74.5571Z" fill="#639595"/>
</svg>
