<svg width="283" height="34" viewBox="0 0 283 34" fill="none" xmlns="http://www.w3.org/2000/svg">
<path d="M12.8699 33.528C10.4352 33.528 8.27925 33.044 6.40191 32.076C4.55391 31.0787 3.10191 29.656 2.04591 27.808C0.989914 25.96 0.461914 23.7747 0.461914 21.252V2.2H7.72191V21.516C7.72191 22.572 7.92725 23.5253 8.33791 24.376C8.74858 25.2267 9.33525 25.9013 10.0979 26.4C10.8899 26.8987 11.8139 27.148 12.8699 27.148C13.9259 27.148 14.8352 26.8987 15.5979 26.4C16.3606 25.9013 16.9472 25.2267 17.3579 24.376C17.7979 23.5253 18.0179 22.572 18.0179 21.516V2.2H25.2779V21.516C25.2779 22.572 25.4832 23.5253 25.8939 24.376C26.3046 25.2267 26.8912 25.9013 27.6539 26.4C28.4459 26.8987 29.3699 27.148 30.4259 27.148C31.4819 27.148 32.3912 26.8987 33.1539 26.4C33.9459 25.9013 34.5472 25.2267 34.9579 24.376C35.3686 23.5253 35.5739 22.572 35.5739 21.516V2.2H42.8339V21.252C42.8339 23.7747 42.3059 25.96 41.2499 27.808C40.1939 29.656 38.7272 31.0787 36.8499 32.076C35.0019 33.044 32.8606 33.528 30.4259 33.528C29.2232 33.528 28.0792 33.3813 26.9939 33.088C25.9379 32.824 24.9552 32.4133 24.0459 31.856C23.1659 31.2987 22.3592 30.624 21.6259 29.832C20.9219 30.624 20.1152 31.2987 19.2059 31.856C18.2966 32.384 17.3139 32.7947 16.2579 33.088C15.2019 33.3813 14.0726 33.528 12.8699 33.528Z" fill="#226464"/>
<path d="M59.5666 33C57.0146 33 54.7706 32.5307 52.8346 31.592C50.8986 30.624 49.388 29.304 48.3026 27.632C47.2466 25.9307 46.7186 23.9653 46.7186 21.736C46.7186 19.272 47.232 17.16 48.2586 15.4C49.2853 13.64 50.6493 12.2907 52.3506 11.352C54.0813 10.384 55.988 9.9 58.0706 9.9C60.4466 9.9 62.4266 10.3987 64.0106 11.396C65.624 12.3933 66.8413 13.7573 67.6626 15.488C68.484 17.1893 68.8946 19.14 68.8946 21.34C68.8946 21.7213 68.8653 22.176 68.8066 22.704C68.7773 23.2027 68.7333 23.5987 68.6746 23.892H53.8906C54.0666 24.6547 54.404 25.3 54.9026 25.828C55.4013 26.356 56.032 26.752 56.7946 27.016C57.5573 27.2507 58.408 27.368 59.3466 27.368H66.2546V33H59.5666ZM53.7146 19.624H62.2946C62.236 19.1547 62.148 18.7 62.0306 18.26C61.9133 17.82 61.7226 17.4387 61.4586 17.116C61.224 16.764 60.9453 16.4707 60.6226 16.236C60.3 15.972 59.9186 15.7667 59.4786 15.62C59.068 15.4733 58.5986 15.4 58.0706 15.4C57.396 15.4 56.7946 15.5173 56.2666 15.752C55.7386 15.9867 55.2986 16.3093 54.9466 16.72C54.5946 17.1013 54.316 17.556 54.1106 18.084C53.9346 18.5827 53.8026 19.096 53.7146 19.624Z" fill="#226464"/>
<path d="M84.7924 33.528C82.3577 33.528 80.231 33.0293 78.4124 32.032C76.5937 31.0347 75.1857 29.612 74.1884 27.764C73.1911 25.916 72.6924 23.76 72.6924 21.296V0.880005H79.5124V12.892H79.6444C80.0844 12.276 80.6271 11.748 81.2724 11.308C81.9471 10.8387 82.6804 10.4867 83.4724 10.252C84.2937 10.0173 85.159 9.9 86.0684 9.9C88.2097 9.9 90.0871 10.384 91.7004 11.352C93.3137 12.32 94.5751 13.6547 95.4844 15.356C96.423 17.0573 96.8924 19.052 96.8924 21.34C96.8924 23.1 96.6137 24.728 96.0564 26.224C95.499 27.72 94.6924 29.0253 93.6364 30.14C92.6097 31.2253 91.3484 32.0613 89.8524 32.648C88.3857 33.2347 86.6991 33.528 84.7924 33.528ZM84.7924 27.632C85.8484 27.632 86.7577 27.3827 87.5204 26.884C88.2831 26.356 88.8697 25.652 89.2804 24.772C89.7204 23.8627 89.9404 22.8507 89.9404 21.736C89.9404 20.6213 89.7204 19.624 89.2804 18.744C88.8697 17.864 88.2831 17.1747 87.5204 16.676C86.7577 16.148 85.8484 15.884 84.7924 15.884C83.7364 15.884 82.8124 16.148 82.0204 16.676C81.2577 17.1747 80.6711 17.864 80.2604 18.744C79.8497 19.624 79.6444 20.6213 79.6444 21.736C79.6444 22.8507 79.8497 23.8627 80.2604 24.772C80.6711 25.652 81.2577 26.356 82.0204 26.884C82.8124 27.3827 83.7364 27.632 84.7924 27.632Z" fill="#226464"/>
<path d="M116.019 33C113.496 32.9707 111.223 32.56 109.199 31.768C107.175 30.976 105.459 29.8907 104.051 28.512C102.643 27.1333 101.558 25.52 100.795 23.672C100.032 21.7947 99.651 19.7707 99.651 17.6C99.651 15.4293 100.032 13.42 100.795 11.572C101.558 9.69467 102.643 8.06667 104.051 6.688C105.488 5.30934 107.204 4.224 109.199 3.432C111.223 2.64 113.496 2.22934 116.019 2.2H120.771V8.36001H116.195C114.816 8.38934 113.555 8.63867 112.411 9.108C111.296 9.57734 110.328 10.2227 109.507 11.044C108.715 11.8653 108.099 12.8333 107.659 13.948C107.248 15.0627 107.043 16.28 107.043 17.6C107.043 18.92 107.248 20.1373 107.659 21.252C108.099 22.3667 108.715 23.3347 109.507 24.156C110.328 24.9773 111.296 25.6227 112.411 26.092C113.555 26.5613 114.816 26.8107 116.195 26.84H120.771V33H116.019Z" fill="#226464"/>
<path d="M135.994 33.528C133.676 33.528 131.594 33.0147 129.746 31.988C127.898 30.9613 126.431 29.5533 125.346 27.764C124.29 25.9747 123.762 23.9653 123.762 21.736C123.762 19.4773 124.29 17.468 125.346 15.708C126.431 13.9187 127.898 12.5107 129.746 11.484C131.594 10.428 133.676 9.9 135.994 9.9C138.311 9.9 140.379 10.428 142.198 11.484C144.046 12.5107 145.498 13.9187 146.554 15.708C147.639 17.468 148.182 19.4773 148.182 21.736C148.182 23.9653 147.639 25.9747 146.554 27.764C145.498 29.5533 144.046 30.9613 142.198 31.988C140.35 33.0147 138.282 33.528 135.994 33.528ZM135.994 27.588C137.079 27.588 138.018 27.324 138.81 26.796C139.602 26.268 140.218 25.564 140.658 24.684C141.098 23.804 141.318 22.8067 141.318 21.692C141.318 20.6067 141.098 19.624 140.658 18.744C140.218 17.864 139.602 17.16 138.81 16.632C138.018 16.104 137.079 15.84 135.994 15.84C134.908 15.84 133.955 16.104 133.134 16.632C132.342 17.16 131.726 17.864 131.286 18.744C130.846 19.624 130.626 20.6067 130.626 21.692C130.626 22.8067 130.846 23.804 131.286 24.684C131.726 25.564 132.342 26.268 133.134 26.796C133.955 27.324 134.908 27.588 135.994 27.588Z" fill="#226464"/>
<path d="M152.232 33V20.02C152.232 18.1427 152.686 16.4413 153.596 14.916C154.505 13.3907 155.796 12.1733 157.468 11.264C159.169 10.3547 161.178 9.9 163.496 9.9C165.842 9.9 167.837 10.3547 169.48 11.264C171.152 12.1733 172.428 13.3907 173.308 14.916C174.188 16.4413 174.628 18.1427 174.628 20.02V33H167.808V20.196C167.808 19.404 167.617 18.6853 167.236 18.04C166.854 17.3653 166.326 16.8373 165.652 16.456C165.006 16.0453 164.273 15.84 163.452 15.84C162.601 15.84 161.838 16.0453 161.164 16.456C160.518 16.8373 160.005 17.3653 159.624 18.04C159.242 18.6853 159.052 19.404 159.052 20.196V33H152.232Z" fill="#226464"/>
<path d="M188.004 33C185.921 33 184.293 32.4133 183.12 31.24C181.946 30.0373 181.36 28.424 181.36 26.4V4.92801H188.224V26.004C188.224 26.356 188.341 26.664 188.576 26.928C188.84 27.1627 189.148 27.28 189.5 27.28H194.428V33H188.004ZM177.664 16.016V10.428H194.428V16.016H177.664Z" fill="#226464"/>
<path d="M206.886 33.528C204.891 33.528 203.131 33.0147 201.606 31.988C200.08 30.9613 198.892 29.5827 198.042 27.852C197.191 26.092 196.766 24.112 196.766 21.912C196.766 19.624 197.264 17.5853 198.262 15.796C199.259 13.9773 200.667 12.54 202.486 11.484C204.334 10.428 206.504 9.9 208.998 9.9C211.52 9.9 213.662 10.428 215.422 11.484C217.211 12.5107 218.575 13.9333 219.514 15.752C220.482 17.5413 220.966 19.5507 220.966 21.78V33H214.278V29.392H214.102C213.691 30.184 213.163 30.9027 212.518 31.548C211.872 32.164 211.08 32.648 210.142 33C209.232 33.352 208.147 33.528 206.886 33.528ZM208.91 27.632C209.936 27.632 210.831 27.3827 211.594 26.884C212.386 26.356 212.987 25.6373 213.398 24.728C213.808 23.8187 214.014 22.8067 214.014 21.692C214.014 20.6067 213.808 19.624 213.398 18.744C212.987 17.864 212.386 17.1747 211.594 16.676C210.831 16.148 209.936 15.884 208.91 15.884C207.854 15.884 206.93 16.148 206.138 16.676C205.346 17.1747 204.744 17.864 204.334 18.744C203.923 19.624 203.718 20.6067 203.718 21.692C203.718 22.8067 203.923 23.8187 204.334 24.728C204.744 25.6373 205.346 26.356 206.138 26.884C206.93 27.3827 207.854 27.632 208.91 27.632Z" fill="#226464"/>
<path d="M237.097 33C234.75 33 232.668 32.516 230.849 31.548C229.03 30.5507 227.593 29.216 226.537 27.544C225.481 25.8427 224.953 23.9067 224.953 21.736C224.953 19.5653 225.481 17.644 226.537 15.972C227.593 14.2707 229.03 12.9213 230.849 11.924C232.668 10.9267 234.75 10.428 237.097 10.428H240.485V16.192H237.361C236.217 16.192 235.234 16.4413 234.413 16.94C233.592 17.4093 232.946 18.0693 232.477 18.92C232.037 19.7413 231.817 20.68 231.817 21.736C231.817 22.792 232.037 23.7453 232.477 24.596C232.946 25.4173 233.592 26.0773 234.413 26.576C235.234 27.0453 236.217 27.28 237.361 27.28H240.485V33H237.097Z" fill="#226464"/>
<path d="M252.543 33C250.46 33 248.832 32.4133 247.659 31.24C246.485 30.0373 245.899 28.424 245.899 26.4V4.92801H252.763V26.004C252.763 26.356 252.88 26.664 253.115 26.928C253.379 27.1627 253.687 27.28 254.039 27.28H258.967V33H252.543ZM242.203 16.016V10.428H258.967V16.016H242.203Z" fill="#226464"/>
<path d="M263.178 33V27.588H274.046C274.339 27.588 274.603 27.5293 274.838 27.412C275.073 27.2653 275.263 27.0747 275.41 26.84C275.557 26.6053 275.63 26.356 275.63 26.092C275.63 25.7987 275.557 25.5347 275.41 25.3C275.263 25.0653 275.073 24.8893 274.838 24.772C274.603 24.6253 274.339 24.552 274.046 24.552H270.086C268.619 24.552 267.285 24.3173 266.082 23.848C264.909 23.3493 263.97 22.5867 263.266 21.56C262.591 20.504 262.254 19.14 262.254 17.468C262.254 16.1773 262.562 15.004 263.178 13.948C263.823 12.892 264.689 12.0413 265.774 11.396C266.889 10.7507 268.106 10.428 269.426 10.428H280.294V15.884H270.482C270.071 15.884 269.719 16.016 269.426 16.28C269.162 16.544 269.03 16.8667 269.03 17.248C269.03 17.6587 269.162 18.0107 269.426 18.304C269.719 18.568 270.071 18.7 270.482 18.7H274.354C275.997 18.7 277.405 18.9493 278.578 19.448C279.781 19.9173 280.705 20.68 281.35 21.736C282.025 22.792 282.362 24.156 282.362 25.828C282.362 27.148 282.025 28.3507 281.35 29.436C280.705 30.5213 279.825 31.3867 278.71 32.032C277.625 32.6773 276.393 33 275.014 33H263.178Z" fill="#226464"/>
</svg>
