<svg width="160" height="18" viewBox="0 0 160 18" fill="none" xmlns="http://www.w3.org/2000/svg">
<path d="M7.0425 18C5.66063 18 4.43694 17.7332 3.37141 17.1995C2.32253 16.6496 1.4984 15.8652 0.899042 14.8464C0.299681 13.8275 0 12.6226 0 11.2318V0.727762H4.12061V11.3774C4.12061 11.9596 4.23715 12.4852 4.47024 12.9542C4.70332 13.4232 5.0363 13.7951 5.46917 14.0701C5.91869 14.345 6.44313 14.4825 7.0425 14.4825C7.64186 14.4825 8.15797 14.345 8.59085 14.0701C9.02372 13.7951 9.3567 13.4232 9.58978 12.9542C9.83952 12.4852 9.96438 11.9596 9.96438 11.3774V0.727762H14.085V11.3774C14.085 11.9596 14.2015 12.4852 14.4346 12.9542C14.6677 13.4232 15.0007 13.7951 15.4336 14.0701C15.8831 14.345 16.4075 14.4825 17.0069 14.4825C17.6062 14.4825 18.1224 14.345 18.5552 14.0701C19.0047 13.7951 19.3461 13.4232 19.5791 12.9542C19.8122 12.4852 19.9288 11.9596 19.9288 11.3774V0.727762H24.0494V11.2318C24.0494 12.6226 23.7497 13.8275 23.1503 14.8464C22.551 15.8652 21.7185 16.6496 20.653 17.1995C19.6041 17.7332 18.3887 18 17.0069 18C16.3243 18 15.675 17.9191 15.059 17.7574C14.4596 17.6119 13.9019 17.3854 13.3857 17.0782C12.8863 16.7709 12.4284 16.3989 12.0122 15.9623C11.6126 16.3989 11.1548 16.7709 10.6387 17.0782C10.1225 17.3693 9.56481 17.5957 8.96545 17.7574C8.36609 17.9191 7.7251 18 7.0425 18Z" fill="white"/>
<path d="M33.5465 17.7089C32.098 17.7089 30.8244 17.4501 29.7256 16.9326C28.6267 16.3989 27.7693 15.6712 27.1533 14.7493C26.5539 13.8113 26.2542 12.7278 26.2542 11.4987C26.2542 10.1402 26.5456 8.97574 27.1283 8.00539C27.711 7.03504 28.4852 6.2911 29.4508 5.77358C30.4331 5.23989 31.5153 4.97304 32.6974 4.97304C34.0459 4.97304 35.1698 5.24798 36.0688 5.79784C36.9845 6.34771 37.6754 7.09973 38.1416 8.05391C38.6078 8.99191 38.8408 10.0674 38.8408 11.2803C38.8408 11.4906 38.8242 11.7412 38.7909 12.0323C38.7742 12.3073 38.7493 12.5256 38.716 12.6873H30.3249C30.4248 13.1078 30.6163 13.4636 30.8993 13.7547C31.1823 14.0458 31.5403 14.2641 31.9732 14.4097C32.406 14.5391 32.8888 14.6038 33.4216 14.6038H37.3424V17.7089H33.5465ZM30.225 10.3342H35.0948C35.0615 10.0755 35.0116 9.8248 34.945 9.58221C34.8784 9.33962 34.7702 9.12938 34.6203 8.95148C34.4871 8.75741 34.329 8.59569 34.1458 8.46631C33.9627 8.32075 33.7463 8.20755 33.4965 8.12668C33.2634 8.04582 32.9971 8.00539 32.6974 8.00539C32.3145 8.00539 31.9732 8.07008 31.6735 8.19946C31.3738 8.32884 31.1241 8.50674 30.9243 8.73315C30.7245 8.94339 30.5663 9.19407 30.4498 9.48517C30.3499 9.76011 30.275 10.0431 30.225 10.3342Z" fill="white"/>
<path d="M47.864 18C46.4822 18 45.2751 17.7251 44.2429 17.1752C43.2107 16.6253 42.4115 15.841 41.8455 14.8221C41.2794 13.8032 40.9964 12.6146 40.9964 11.2561V0H44.8672V6.62264H44.9422C45.1919 6.28302 45.4999 5.99191 45.8662 5.74933C46.2491 5.49057 46.6653 5.2965 47.1148 5.16712C47.581 5.03773 48.0721 4.97304 48.5883 4.97304C49.8036 4.97304 50.8692 5.23989 51.7849 5.77358C52.7006 6.30728 53.4165 7.04313 53.9326 7.98113C54.4653 8.91914 54.7317 10.0189 54.7317 11.2803C54.7317 12.2507 54.5736 13.1482 54.2572 13.973C53.9409 14.7978 53.483 15.5175 52.8837 16.1321C52.301 16.7305 51.5851 17.1914 50.736 17.5148C49.9035 17.8383 48.9462 18 47.864 18ZM47.864 14.7493C48.4634 14.7493 48.9795 14.6119 49.4124 14.3369C49.8453 14.0458 50.1782 13.6577 50.4113 13.1725C50.6611 12.6712 50.7859 12.1132 50.7859 11.4987C50.7859 10.8841 50.6611 10.3342 50.4113 9.84906C50.1782 9.36388 49.8453 8.98383 49.4124 8.70889C48.9795 8.41779 48.4634 8.27224 47.864 8.27224C47.2647 8.27224 46.7402 8.41779 46.2907 8.70889C45.8578 8.98383 45.5249 9.36388 45.2918 9.84906C45.0587 10.3342 44.9422 10.8841 44.9422 11.4987C44.9422 12.1132 45.0587 12.6712 45.2918 13.1725C45.5249 13.6577 45.8578 14.0458 46.2907 14.3369C46.7402 14.6119 47.2647 14.7493 47.864 14.7493Z" fill="white"/>
<path d="M65.5875 17.7089C64.1557 17.6927 62.8654 17.4663 61.7167 17.0296C60.5679 16.593 59.5939 15.9946 58.7948 15.2345C57.9956 14.4744 57.3796 13.5849 56.9467 12.566C56.5139 11.531 56.2974 10.4151 56.2974 9.21833C56.2974 8.02156 56.5139 6.91375 56.9467 5.89488C57.3796 4.85984 57.9956 3.96226 58.7948 3.20216C59.6106 2.44205 60.5845 1.84367 61.7167 1.40701C62.8654 0.970349 64.1557 0.743934 65.5875 0.727762H68.2847V4.12399H65.6874C64.9049 4.14016 64.189 4.27763 63.5397 4.53639C62.9071 4.79515 62.3576 5.15094 61.8915 5.60377C61.442 6.0566 61.0923 6.5903 60.8426 7.20485C60.6095 7.81941 60.493 8.49057 60.493 9.21833C60.493 9.94609 60.6095 10.6172 60.8426 11.2318C61.0923 11.8464 61.442 12.3801 61.8915 12.8329C62.3576 13.2857 62.9071 13.6415 63.5397 13.9003C64.189 14.159 64.9049 14.2965 65.6874 14.3127H68.2847V17.7089H65.5875Z" fill="white"/>
<path d="M76.9247 18C75.6094 18 74.4273 17.717 73.3784 17.1509C72.3296 16.5849 71.4971 15.8086 70.8811 14.8221C70.2817 13.8356 69.9821 12.7278 69.9821 11.4987C69.9821 10.2534 70.2817 9.14555 70.8811 8.1752C71.4971 7.18868 72.3296 6.4124 73.3784 5.84636C74.4273 5.26415 75.6094 4.97304 76.9247 4.97304C78.2399 4.97304 79.4137 5.26415 80.4459 5.84636C81.4948 6.4124 82.3189 7.18868 82.9183 8.1752C83.5343 9.14555 83.8423 10.2534 83.8423 11.4987C83.8423 12.7278 83.5343 13.8356 82.9183 14.8221C82.3189 15.8086 81.4948 16.5849 80.4459 17.1509C79.397 17.717 78.2233 18 76.9247 18ZM76.9247 14.7251C77.5407 14.7251 78.0734 14.5795 78.523 14.2884C78.9725 13.9973 79.3221 13.6092 79.5719 13.124C79.8216 12.6388 79.9464 12.0889 79.9464 11.4744C79.9464 10.876 79.8216 10.3342 79.5719 9.84906C79.3221 9.36388 78.9725 8.97574 78.523 8.68464C78.0734 8.39353 77.5407 8.24798 76.9247 8.24798C76.3087 8.24798 75.7676 8.39353 75.3014 8.68464C74.8519 8.97574 74.5023 9.36388 74.2525 9.84906C74.0028 10.3342 73.8779 10.876 73.8779 11.4744C73.8779 12.0889 74.0028 12.6388 74.2525 13.124C74.5023 13.6092 74.8519 13.9973 75.3014 14.2884C75.7676 14.5795 76.3087 14.7251 76.9247 14.7251Z" fill="white"/>
<path d="M86.141 17.7089V10.5526C86.141 9.51752 86.3991 8.57951 86.9152 7.73854C87.4313 6.89757 88.1639 6.22641 89.1129 5.72507C90.0785 5.22372 91.2189 4.97304 92.5342 4.97304C93.8661 4.97304 94.9982 5.22372 95.9306 5.72507C96.8796 6.22641 97.6038 6.89757 98.1033 7.73854C98.6027 8.57951 98.8525 9.51752 98.8525 10.5526V17.7089H94.9816V10.6496C94.9816 10.2129 94.8734 9.81671 94.657 9.46092C94.4405 9.08895 94.1408 8.79784 93.7579 8.5876C93.3916 8.36119 92.9754 8.24798 92.5092 8.24798C92.0264 8.24798 91.5935 8.36119 91.2106 8.5876C90.8443 8.79784 90.553 9.08895 90.3365 9.46092C90.1201 9.81671 90.0119 10.2129 90.0119 10.6496V17.7089H86.141Z" fill="white"/>
<path d="M106.444 17.7089C105.262 17.7089 104.338 17.3854 103.672 16.7385C103.006 16.0755 102.673 15.186 102.673 14.0701V2.23181H106.569V13.8518C106.569 14.0458 106.636 14.2156 106.769 14.3612C106.919 14.4906 107.094 14.5553 107.293 14.5553H110.09V17.7089H106.444ZM100.576 8.34501V5.26415H110.09V8.34501H100.576Z" fill="white"/>
<path d="M117.161 18C116.029 18 115.03 17.717 114.164 17.1509C113.299 16.5849 112.624 15.8248 112.142 14.8706C111.659 13.9003 111.417 12.8086 111.417 11.5957C111.417 10.3342 111.7 9.21024 112.267 8.22372C112.833 7.22102 113.632 6.42857 114.664 5.84636C115.713 5.26415 116.945 4.97304 118.36 4.97304C119.792 4.97304 121.007 5.26415 122.006 5.84636C123.022 6.4124 123.796 7.19676 124.329 8.19946C124.878 9.18598 125.153 10.2938 125.153 11.5229V17.7089H121.357V15.7197H121.257C121.024 16.1563 120.724 16.5526 120.358 16.9084C119.992 17.248 119.542 17.5148 119.009 17.7089C118.493 17.903 117.877 18 117.161 18ZM118.31 14.7493C118.893 14.7493 119.401 14.6119 119.833 14.3369C120.283 14.0458 120.624 13.6496 120.857 13.1482C121.09 12.6469 121.207 12.0889 121.207 11.4744C121.207 10.876 121.09 10.3342 120.857 9.84906C120.624 9.36388 120.283 8.98383 119.833 8.70889C119.401 8.41779 118.893 8.27224 118.31 8.27224C117.711 8.27224 117.186 8.41779 116.737 8.70889C116.287 8.98383 115.946 9.36388 115.713 9.84906C115.48 10.3342 115.363 10.876 115.363 11.4744C115.363 12.0889 115.48 12.6469 115.713 13.1482C115.946 13.6496 116.287 14.0458 116.737 14.3369C117.186 14.6119 117.711 14.7493 118.31 14.7493Z" fill="white"/>
<path d="M134.309 17.7089C132.977 17.7089 131.795 17.442 130.762 16.9084C129.73 16.3585 128.914 15.6226 128.315 14.7008C127.716 13.7628 127.416 12.6954 127.416 11.4987C127.416 10.3019 127.716 9.24259 128.315 8.32075C128.914 7.38275 129.73 6.63881 130.762 6.08895C131.795 5.53908 132.977 5.26415 134.309 5.26415H136.232V8.44205H134.458C133.809 8.44205 133.251 8.57951 132.785 8.85445C132.319 9.11321 131.953 9.47709 131.686 9.94609C131.437 10.3989 131.312 10.9164 131.312 11.4987C131.312 12.0809 131.437 12.6065 131.686 13.0755C131.953 13.5283 132.319 13.8922 132.785 14.1671C133.251 14.4259 133.809 14.5553 134.458 14.5553H136.232V17.7089H134.309Z" fill="white"/>
<path d="M143.075 17.7089C141.893 17.7089 140.969 17.3854 140.303 16.7385C139.637 16.0755 139.304 15.186 139.304 14.0701V2.23181H143.2V13.8518C143.2 14.0458 143.267 14.2156 143.4 14.3612C143.55 14.4906 143.725 14.5553 143.924 14.5553H146.721V17.7089H143.075ZM137.207 8.34501V5.26415H146.721V8.34501H137.207Z" fill="white"/>
<path d="M149.112 17.7089V14.7251H155.28C155.447 14.7251 155.596 14.6927 155.73 14.628C155.863 14.5472 155.971 14.442 156.054 14.3127C156.137 14.1833 156.179 14.0458 156.179 13.9003C156.179 13.7385 156.137 13.593 156.054 13.4636C155.971 13.3342 155.863 13.2372 155.73 13.1725C155.596 13.0916 155.447 13.0512 155.28 13.0512H153.032C152.2 13.0512 151.442 12.9218 150.76 12.6631C150.094 12.3881 149.561 11.9677 149.162 11.4016C148.779 10.8194 148.587 10.0674 148.587 9.14555C148.587 8.43396 148.762 7.78706 149.112 7.20485C149.478 6.62264 149.969 6.15364 150.585 5.79784C151.218 5.44205 151.909 5.26415 152.658 5.26415H158.826V8.27224H153.257C153.024 8.27224 152.824 8.34501 152.658 8.49057C152.508 8.63612 152.433 8.81402 152.433 9.02426C152.433 9.25067 152.508 9.44474 152.658 9.60647C152.824 9.75202 153.024 9.8248 153.257 9.8248H155.455C156.387 9.8248 157.186 9.96226 157.852 10.2372C158.535 10.496 159.059 10.9164 159.426 11.4987C159.809 12.0809 160 12.8329 160 13.7547C160 14.4825 159.809 15.1456 159.426 15.7439C159.059 16.3423 158.56 16.8194 157.927 17.1752C157.311 17.531 156.612 17.7089 155.829 17.7089H149.112Z" fill="white"/>
</svg>
